<svg xmlns="http://www.w3.org/2000/svg" viewBox="0 0 303 303"><g fill="#E2D8C6"><circle cx="82.7" cy="115.6" r="1.62"/><circle cx="82.7" cy="120.1" r="1.62"/><circle cx="82.7" cy="124.5" r="1.62"/><circle cx="82.7" cy="129.0" r="1.62"/><circle cx="87.2" cy="111.1" r="1.62"/><circle cx="87.2" cy="115.6" r="1.62"/><circle cx="87.2" cy="120.1" r="1.62"/><circle cx="87.2" cy="124.5" r="1.62"/><circle cx="87.2" cy="129.0" r="1.62"/><circle cx="91.7" cy="111.1" r="1.62"/><circle cx="91.7" cy="115.6" r="1.62"/><circle cx="91.7" cy="120.1" r="1.62"/><circle cx="91.7" cy="124.5" r="1.62"/><circle cx="91.7" cy="129.0" r="1.62"/><circle cx="91.7" cy="133.5" r="1.62"/><circle cx="96.2" cy="88.7" r="1.62"/><circle cx="96.2" cy="93.1" r="1.62"/><circle cx="96.2" cy="97.6" r="1.62"/><circle cx="96.2" cy="102.1" r="1.62"/><circle cx="96.2" cy="106.6" r="1.62"/><circle cx="96.2" cy="111.1" r="1.62"/><circle cx="96.2" cy="115.6" r="1.62"/><circle cx="96.2" cy="120.1" r="1.62"/><circle cx="96.2" cy="124.5" r="1.62"/><circle cx="96.2" cy="129.0" r="1.62"/><circle cx="96.2" cy="133.5" r="1.62"/><circle cx="100.7" cy="88.7" r="1.62"/><circle cx="100.7" cy="93.1" r="1.62"/><circle cx="100.7" cy="97.6" r="1.62"/><circle cx="100.7" cy="102.1" r="1.62"/><circle cx="100.7" cy="106.6" r="1.62"/><circle cx="100.7" cy="111.1" r="1.62"/><circle cx="100.7" cy="115.6" r="1.62"/><circle cx="100.7" cy="120.1" r="1.62"/><circle cx="100.7" cy="124.5" r="1.62"/><circle cx="100.7" cy="129.0" r="1.62"/><circle cx="100.7" cy="133.5" r="1.62"/><circle cx="105.2" cy="93.1" r="1.62"/><circle cx="105.2" cy="97.6" r="1.62"/><circle cx="105.2" cy="102.1" r="1.62"/><circle cx="105.2" cy="106.6" r="1.62"/><circle cx="105.2" cy="111.1" r="1.62"/><circle cx="105.2" cy="115.6" r="1.62"/><circle cx="105.2" cy="120.1" r="1.62"/><circle cx="105.2" cy="124.5" r="1.62"/><circle cx="105.2" cy="129.0" r="1.62"/><circle cx="109.6" cy="93.1" r="1.62"/><circle cx="109.6" cy="97.6" r="1.62"/><circle cx="109.6" cy="102.1" r="1.62"/><circle cx="109.6" cy="106.6" r="1.62"/><circle cx="109.6" cy="111.1" r="1.62"/><circle cx="109.6" cy="115.6" r="1.62"/><circle cx="109.6" cy="120.1" r="1.62"/><circle cx="109.6" cy="124.5" r="1.62"/><circle cx="109.6" cy="129.0" r="1.62"/><circle cx="114.1" cy="79.7" r="1.62"/><circle cx="114.1" cy="84.2" r="1.62"/><circle cx="114.1" cy="88.7" r="1.62"/><circle cx="114.1" cy="93.1" r="1.62"/><circle cx="114.1" cy="97.6" r="1.62"/><circle cx="114.1" cy="102.1" r="1.62"/><circle cx="114.1" cy="106.6" r="1.62"/><circle cx="114.1" cy="111.1" r="1.62"/><circle cx="114.1" cy="115.6" r="1.62"/><circle cx="114.1" cy="120.1" r="1.62"/><circle cx="114.1" cy="124.5" r="1.62"/><circle cx="114.1" cy="129.0" r="1.62"/><circle cx="114.1" cy="133.5" r="1.62"/><circle cx="114.1" cy="138.0" r="1.62"/><circle cx="118.6" cy="79.7" r="1.62"/><circle cx="118.6" cy="84.2" r="1.62"/><circle cx="118.6" cy="88.7" r="1.62"/><circle cx="118.6" cy="93.1" r="1.62"/><circle cx="118.6" cy="97.6" r="1.62"/><circle cx="118.6" cy="102.1" r="1.62"/><circle cx="118.6" cy="106.6" r="1.62"/><circle cx="118.6" cy="111.1" r="1.62"/><circle cx="118.6" cy="115.6" r="1.62"/><circle cx="118.6" cy="120.1" r="1.62"/><circle cx="118.6" cy="124.5" r="1.62"/><circle cx="118.6" cy="129.0" r="1.62"/><circle cx="118.6" cy="133.5" r="1.62"/><circle cx="118.6" cy="138.0" r="1.62"/><circle cx="123.1" cy="79.7" r="1.62"/><circle cx="123.1" cy="84.2" r="1.62"/><circle cx="123.1" cy="88.7" r="1.62"/><circle cx="123.1" cy="93.1" r="1.62"/><circle cx="123.1" cy="97.6" r="1.62"/><circle cx="123.1" cy="102.1" r="1.62"/><circle cx="123.1" cy="106.6" r="1.62"/><circle cx="123.1" cy="111.1" r="1.62"/><circle cx="123.1" cy="115.6" r="1.62"/><circle cx="123.1" cy="120.1" r="1.62"/><circle cx="123.1" cy="124.5" r="1.62"/><circle cx="123.1" cy="129.0" r="1.62"/><circle cx="123.1" cy="133.5" r="1.62"/><circle cx="123.1" cy="138.0" r="1.62"/><circle cx="123.1" cy="142.5" r="1.62"/><circle cx="127.6" cy="75.2" r="1.62"/><circle cx="127.6" cy="79.7" r="1.62"/><circle cx="127.6" cy="84.2" r="1.62"/><circle cx="127.6" cy="88.7" r="1.62"/><circle cx="127.6" cy="93.1" r="1.62"/><circle cx="127.6" cy="97.6" r="1.62"/><circle cx="127.6" cy="102.1" r="1.62"/><circle cx="127.6" cy="106.6" r="1.62"/><circle cx="127.6" cy="111.1" r="1.62"/><circle cx="127.6" cy="115.6" r="1.62"/><circle cx="127.6" cy="120.1" r="1.62"/><circle cx="127.6" cy="124.5" r="1.62"/><circle cx="127.6" cy="129.0" r="1.62"/><circle cx="127.6" cy="133.5" r="1.62"/><circle cx="127.6" cy="138.0" r="1.62"/><circle cx="127.6" cy="142.5" r="1.62"/><circle cx="132.1" cy="88.7" r="1.62"/><circle cx="132.1" cy="93.1" r="1.62"/><circle cx="132.1" cy="97.6" r="1.62"/><circle cx="132.1" cy="102.1" r="1.62"/><circle cx="132.1" cy="106.6" r="1.62"/><circle cx="132.1" cy="111.1" r="1.62"/><circle cx="132.1" cy="115.6" r="1.62"/><circle cx="132.1" cy="120.1" r="1.62"/><circle cx="132.1" cy="124.5" r="1.62"/><circle cx="132.1" cy="129.0" r="1.62"/><circle cx="132.1" cy="133.5" r="1.62"/><circle cx="132.1" cy="138.0" r="1.62"/><circle cx="132.1" cy="142.5" r="1.62"/><circle cx="132.1" cy="147.0" r="1.62"/><circle cx="132.1" cy="151.4" r="1.62"/><circle cx="136.6" cy="88.7" r="1.62"/><circle cx="136.6" cy="93.1" r="1.62"/><circle cx="136.6" cy="97.6" r="1.62"/><circle cx="136.6" cy="102.1" r="1.62"/><circle cx="136.6" cy="106.6" r="1.62"/><circle cx="136.6" cy="111.1" r="1.62"/><circle cx="136.6" cy="115.6" r="1.62"/><circle cx="136.6" cy="120.1" r="1.62"/><circle cx="136.6" cy="124.5" r="1.62"/><circle cx="136.6" cy="129.0" r="1.62"/><circle cx="136.6" cy="133.5" r="1.62"/><circle cx="136.6" cy="138.0" r="1.62"/><circle cx="136.6" cy="142.5" r="1.62"/><circle cx="136.6" cy="147.0" r="1.62"/><circle cx="136.6" cy="151.4" r="1.62"/><circle cx="136.6" cy="155.9" r="1.62"/><circle cx="136.6" cy="169.4" r="1.62"/><circle cx="141.0" cy="88.7" r="1.62"/><circle cx="141.0" cy="93.1" r="1.62"/><circle cx="141.0" cy="97.6" r="1.62"/><circle cx="141.0" cy="102.1" r="1.62"/><circle cx="141.0" cy="106.6" r="1.62"/><circle cx="141.0" cy="111.1" r="1.62"/><circle cx="141.0" cy="115.6" r="1.62"/><circle cx="141.0" cy="120.1" r="1.62"/><circle cx="141.0" cy="124.5" r="1.62"/><circle cx="141.0" cy="129.0" r="1.62"/><circle cx="141.0" cy="133.5" r="1.62"/><circle cx="141.0" cy="138.0" r="1.62"/><circle cx="141.0" cy="142.5" r="1.62"/><circle cx="141.0" cy="147.0" r="1.62"/><circle cx="141.0" cy="151.4" r="1.62"/><circle cx="141.0" cy="155.9" r="1.62"/><circle cx="141.0" cy="160.4" r="1.62"/><circle cx="141.0" cy="164.9" r="1.62"/><circle cx="141.0" cy="169.4" r="1.62"/><circle cx="141.0" cy="173.9" r="1.62"/><circle cx="141.0" cy="205.3" r="1.62"/><circle cx="145.5" cy="88.7" r="1.62"/><circle cx="145.5" cy="93.1" r="1.62"/><circle cx="145.5" cy="97.6" r="1.62"/><circle cx="145.5" cy="102.1" r="1.62"/><circle cx="145.5" cy="106.6" r="1.62"/><circle cx="145.5" cy="111.1" r="1.62"/><circle cx="145.5" cy="115.6" r="1.62"/><circle cx="145.5" cy="120.1" r="1.62"/><circle cx="145.5" cy="124.5" r="1.62"/><circle cx="145.5" cy="129.0" r="1.62"/><circle cx="145.5" cy="133.5" r="1.62"/><circle cx="145.5" cy="138.0" r="1.62"/><circle cx="145.5" cy="142.5" r="1.62"/><circle cx="145.5" cy="147.0" r="1.62"/><circle cx="145.5" cy="151.4" r="1.62"/><circle cx="145.5" cy="155.9" r="1.62"/><circle cx="145.5" cy="160.4" r="1.62"/><circle cx="145.5" cy="164.9" r="1.62"/><circle cx="145.5" cy="169.4" r="1.62"/><circle cx="145.5" cy="173.9" r="1.62"/><circle cx="145.5" cy="178.4" r="1.62"/><circle cx="145.5" cy="200.8" r="1.62"/><circle cx="145.5" cy="205.3" r="1.62"/><circle cx="150.0" cy="88.7" r="1.62"/><circle cx="150.0" cy="93.1" r="1.62"/><circle cx="150.0" cy="97.6" r="1.62"/><circle cx="150.0" cy="102.1" r="1.62"/><circle cx="150.0" cy="106.6" r="1.62"/><circle cx="150.0" cy="111.1" r="1.62"/><circle cx="150.0" cy="115.6" r="1.62"/><circle cx="150.0" cy="120.1" r="1.62"/><circle cx="150.0" cy="124.5" r="1.62"/><circle cx="150.0" cy="129.0" r="1.62"/><circle cx="150.0" cy="133.5" r="1.62"/><circle cx="150.0" cy="138.0" r="1.62"/><circle cx="150.0" cy="142.5" r="1.62"/><circle cx="150.0" cy="147.0" r="1.62"/><circle cx="150.0" cy="151.4" r="1.62"/><circle cx="150.0" cy="155.9" r="1.62"/><circle cx="150.0" cy="160.4" r="1.62"/><circle cx="150.0" cy="164.9" r="1.62"/><circle cx="150.0" cy="169.4" r="1.62"/><circle cx="150.0" cy="173.9" r="1.62"/><circle cx="150.0" cy="178.4" r="1.62"/><circle cx="150.0" cy="182.8" r="1.62"/><circle cx="150.0" cy="187.3" r="1.62"/><circle cx="150.0" cy="196.3" r="1.62"/><circle cx="150.0" cy="200.8" r="1.62"/><circle cx="150.0" cy="205.3" r="1.62"/><circle cx="150.0" cy="209.8" r="1.62"/><circle cx="154.5" cy="88.7" r="1.62"/><circle cx="154.5" cy="93.1" r="1.62"/><circle cx="154.5" cy="97.6" r="1.62"/><circle cx="154.5" cy="102.1" r="1.62"/><circle cx="154.5" cy="106.6" r="1.62"/><circle cx="154.5" cy="111.1" r="1.62"/><circle cx="154.5" cy="115.6" r="1.62"/><circle cx="154.5" cy="120.1" r="1.62"/><circle cx="154.5" cy="124.5" r="1.62"/><circle cx="154.5" cy="129.0" r="1.62"/><circle cx="154.5" cy="133.5" r="1.62"/><circle cx="154.5" cy="138.0" r="1.62"/><circle cx="154.5" cy="142.5" r="1.62"/><circle cx="154.5" cy="147.0" r="1.62"/><circle cx="154.5" cy="151.4" r="1.62"/><circle cx="154.5" cy="155.9" r="1.62"/><circle cx="154.5" cy="160.4" r="1.62"/><circle cx="154.5" cy="164.9" r="1.62"/><circle cx="154.5" cy="169.4" r="1.62"/><circle cx="154.5" cy="173.9" r="1.62"/><circle cx="154.5" cy="178.4" r="1.62"/><circle cx="154.5" cy="182.8" r="1.62"/><circle cx="154.5" cy="187.3" r="1.62"/><circle cx="154.5" cy="191.8" r="1.62"/><circle cx="154.5" cy="196.3" r="1.62"/><circle cx="154.5" cy="200.8" r="1.62"/><circle cx="154.5" cy="205.3" r="1.62"/><circle cx="154.5" cy="209.8" r="1.62"/><circle cx="154.5" cy="214.2" r="1.62"/><circle cx="154.5" cy="218.7" r="1.62"/><circle cx="159.0" cy="79.7" r="1.62"/><circle cx="159.0" cy="84.2" r="1.62"/><circle cx="159.0" cy="88.7" r="1.62"/><circle cx="159.0" cy="93.1" r="1.62"/><circle cx="159.0" cy="97.6" r="1.62"/><circle cx="159.0" cy="102.1" r="1.62"/><circle cx="159.0" cy="106.6" r="1.62"/><circle cx="159.0" cy="111.1" r="1.62"/><circle cx="159.0" cy="115.6" r="1.62"/><circle cx="159.0" cy="120.1" r="1.62"/><circle cx="159.0" cy="124.5" r="1.62"/><circle cx="159.0" cy="129.0" r="1.62"/><circle cx="159.0" cy="133.5" r="1.62"/><circle cx="159.0" cy="138.0" r="1.62"/><circle cx="159.0" cy="142.5" r="1.62"/><circle cx="159.0" cy="147.0" r="1.62"/><circle cx="159.0" cy="151.4" r="1.62"/><circle cx="159.0" cy="155.9" r="1.62"/><circle cx="159.0" cy="160.4" r="1.62"/><circle cx="159.0" cy="164.9" r="1.62"/><circle cx="159.0" cy="169.4" r="1.62"/><circle cx="159.0" cy="173.9" r="1.62"/><circle cx="159.0" cy="178.4" r="1.62"/><circle cx="159.0" cy="182.8" r="1.62"/><circle cx="159.0" cy="187.3" r="1.62"/><circle cx="159.0" cy="191.8" r="1.62"/><circle cx="159.0" cy="196.3" r="1.62"/><circle cx="159.0" cy="200.8" r="1.62"/><circle cx="159.0" cy="205.3" r="1.62"/><circle cx="159.0" cy="209.8" r="1.62"/><circle cx="163.5" cy="88.7" r="1.62"/><circle cx="163.5" cy="93.1" r="1.62"/><circle cx="163.5" cy="97.6" r="1.62"/><circle cx="163.5" cy="102.1" r="1.62"/><circle cx="163.5" cy="106.6" r="1.62"/><circle cx="163.5" cy="111.1" r="1.62"/><circle cx="163.5" cy="115.6" r="1.62"/><circle cx="163.5" cy="120.1" r="1.62"/><circle cx="163.5" cy="124.5" r="1.62"/><circle cx="163.5" cy="129.0" r="1.62"/><circle cx="163.5" cy="133.5" r="1.62"/><circle cx="163.5" cy="138.0" r="1.62"/><circle cx="163.5" cy="142.5" r="1.62"/><circle cx="163.5" cy="147.0" r="1.62"/><circle cx="163.5" cy="151.4" r="1.62"/><circle cx="163.5" cy="155.9" r="1.62"/><circle cx="163.5" cy="160.4" r="1.62"/><circle cx="163.5" cy="164.9" r="1.62"/><circle cx="163.5" cy="169.4" r="1.62"/><circle cx="163.5" cy="173.9" r="1.62"/><circle cx="163.5" cy="178.4" r="1.62"/><circle cx="163.5" cy="182.8" r="1.62"/><circle cx="163.5" cy="187.3" r="1.62"/><circle cx="163.5" cy="191.8" r="1.62"/><circle cx="163.5" cy="196.3" r="1.62"/><circle cx="163.5" cy="200.8" r="1.62"/><circle cx="163.5" cy="205.3" r="1.62"/><circle cx="167.9" cy="97.6" r="1.62"/><circle cx="167.9" cy="102.1" r="1.62"/><circle cx="167.9" cy="106.6" r="1.62"/><circle cx="167.9" cy="111.1" r="1.62"/><circle cx="167.9" cy="115.6" r="1.62"/><circle cx="167.9" cy="120.1" r="1.62"/><circle cx="167.9" cy="124.5" r="1.62"/><circle cx="167.9" cy="129.0" r="1.62"/><circle cx="167.9" cy="133.5" r="1.62"/><circle cx="167.9" cy="138.0" r="1.62"/><circle cx="167.9" cy="142.5" r="1.62"/><circle cx="167.9" cy="147.0" r="1.62"/><circle cx="167.9" cy="151.4" r="1.62"/><circle cx="167.9" cy="155.9" r="1.62"/><circle cx="167.9" cy="160.4" r="1.62"/><circle cx="167.9" cy="164.9" r="1.62"/><circle cx="167.9" cy="169.4" r="1.62"/><circle cx="167.9" cy="173.9" r="1.62"/><circle cx="167.9" cy="178.4" r="1.62"/><circle cx="167.9" cy="182.8" r="1.62"/><circle cx="167.9" cy="187.3" r="1.62"/><circle cx="167.9" cy="191.8" r="1.62"/><circle cx="167.9" cy="196.3" r="1.62"/><circle cx="167.9" cy="200.8" r="1.62"/><circle cx="172.4" cy="97.6" r="1.62"/><circle cx="172.4" cy="102.1" r="1.62"/><circle cx="172.4" cy="106.6" r="1.62"/><circle cx="172.4" cy="111.1" r="1.62"/><circle cx="172.4" cy="115.6" r="1.62"/><circle cx="172.4" cy="120.1" r="1.62"/><circle cx="172.4" cy="124.5" r="1.62"/><circle cx="172.4" cy="129.0" r="1.62"/><circle cx="172.4" cy="133.5" r="1.62"/><circle cx="172.4" cy="138.0" r="1.62"/><circle cx="172.4" cy="142.5" r="1.62"/><circle cx="172.4" cy="147.0" r="1.62"/><circle cx="172.4" cy="151.4" r="1.62"/><circle cx="172.4" cy="155.9" r="1.62"/><circle cx="172.4" cy="160.4" r="1.62"/><circle cx="172.4" cy="164.9" r="1.62"/><circle cx="172.4" cy="169.4" r="1.62"/><circle cx="172.4" cy="173.9" r="1.62"/><circle cx="172.4" cy="178.4" r="1.62"/><circle cx="172.4" cy="182.8" r="1.62"/><circle cx="172.4" cy="187.3" r="1.62"/><circle cx="176.9" cy="97.6" r="1.62"/><circle cx="176.9" cy="102.1" r="1.62"/><circle cx="176.9" cy="106.6" r="1.62"/><circle cx="176.9" cy="111.1" r="1.62"/><circle cx="176.9" cy="115.6" r="1.62"/><circle cx="176.9" cy="120.1" r="1.62"/><circle cx="176.9" cy="124.5" r="1.62"/><circle cx="176.9" cy="129.0" r="1.62"/><circle cx="176.9" cy="133.5" r="1.62"/><circle cx="176.9" cy="138.0" r="1.62"/><circle cx="176.9" cy="142.5" r="1.62"/><circle cx="176.9" cy="147.0" r="1.62"/><circle cx="176.9" cy="151.4" r="1.62"/><circle cx="176.9" cy="155.9" r="1.62"/><circle cx="176.9" cy="160.4" r="1.62"/><circle cx="176.9" cy="164.9" r="1.62"/><circle cx="176.9" cy="169.4" r="1.62"/><circle cx="176.9" cy="173.9" r="1.62"/><circle cx="176.9" cy="178.4" r="1.62"/><circle cx="176.9" cy="182.8" r="1.62"/><circle cx="181.4" cy="102.1" r="1.62"/><circle cx="181.4" cy="106.6" r="1.62"/><circle cx="181.4" cy="111.1" r="1.62"/><circle cx="181.4" cy="115.6" r="1.62"/><circle cx="181.4" cy="120.1" r="1.62"/><circle cx="181.4" cy="124.5" r="1.62"/><circle cx="181.4" cy="129.0" r="1.62"/><circle cx="181.4" cy="133.5" r="1.62"/><circle cx="181.4" cy="138.0" r="1.62"/><circle cx="181.4" cy="142.5" r="1.62"/><circle cx="181.4" cy="147.0" r="1.62"/><circle cx="181.4" cy="151.4" r="1.62"/><circle cx="181.4" cy="155.9" r="1.62"/><circle cx="181.4" cy="160.4" r="1.62"/><circle cx="181.4" cy="164.9" r="1.62"/><circle cx="181.4" cy="169.4" r="1.62"/><circle cx="181.4" cy="173.9" r="1.62"/><circle cx="181.4" cy="178.4" r="1.62"/><circle cx="181.4" cy="182.8" r="1.62"/><circle cx="185.9" cy="102.1" r="1.62"/><circle cx="185.9" cy="106.6" r="1.62"/><circle cx="185.9" cy="111.1" r="1.62"/><circle cx="185.9" cy="115.6" r="1.62"/><circle cx="185.9" cy="120.1" r="1.62"/><circle cx="185.9" cy="124.5" r="1.62"/><circle cx="185.9" cy="129.0" r="1.62"/><circle cx="185.9" cy="133.5" r="1.62"/><circle cx="185.9" cy="138.0" r="1.62"/><circle cx="185.9" cy="142.5" r="1.62"/><circle cx="185.9" cy="147.0" r="1.62"/><circle cx="185.9" cy="151.4" r="1.62"/><circle cx="185.9" cy="155.9" r="1.62"/><circle cx="185.9" cy="160.4" r="1.62"/><circle cx="185.9" cy="164.9" r="1.62"/><circle cx="185.9" cy="169.4" r="1.62"/><circle cx="185.9" cy="173.9" r="1.62"/><circle cx="185.9" cy="178.4" r="1.62"/><circle cx="190.4" cy="106.6" r="1.62"/><circle cx="190.4" cy="111.1" r="1.62"/><circle cx="190.4" cy="115.6" r="1.62"/><circle cx="190.4" cy="120.1" r="1.62"/><circle cx="190.4" cy="124.5" r="1.62"/><circle cx="190.4" cy="129.0" r="1.62"/><circle cx="190.4" cy="133.5" r="1.62"/><circle cx="190.4" cy="138.0" r="1.62"/><circle cx="190.4" cy="142.5" r="1.62"/><circle cx="190.4" cy="147.0" r="1.62"/><circle cx="190.4" cy="151.4" r="1.62"/><circle cx="190.4" cy="155.9" r="1.62"/><circle cx="190.4" cy="160.4" r="1.62"/><circle cx="190.4" cy="164.9" r="1.62"/><circle cx="190.4" cy="169.4" r="1.62"/><circle cx="190.4" cy="173.9" r="1.62"/><circle cx="190.4" cy="178.4" r="1.62"/><circle cx="194.9" cy="106.6" r="1.62"/><circle cx="194.9" cy="111.1" r="1.62"/><circle cx="194.9" cy="115.6" r="1.62"/><circle cx="194.9" cy="120.1" r="1.62"/><circle cx="194.9" cy="124.5" r="1.62"/><circle cx="194.9" cy="129.0" r="1.62"/><circle cx="194.9" cy="133.5" r="1.62"/><circle cx="194.9" cy="138.0" r="1.62"/><circle cx="194.9" cy="142.5" r="1.62"/><circle cx="194.9" cy="147.0" r="1.62"/><circle cx="194.9" cy="151.4" r="1.62"/><circle cx="194.9" cy="155.9" r="1.62"/><circle cx="194.9" cy="160.4" r="1.62"/><circle cx="194.9" cy="164.9" r="1.62"/><circle cx="194.9" cy="169.4" r="1.62"/><circle cx="194.9" cy="173.9" r="1.62"/><circle cx="194.9" cy="178.4" r="1.62"/><circle cx="199.3" cy="106.6" r="1.62"/><circle cx="199.3" cy="111.1" r="1.62"/><circle cx="199.3" cy="115.6" r="1.62"/><circle cx="199.3" cy="120.1" r="1.62"/><circle cx="199.3" cy="124.5" r="1.62"/><circle cx="199.3" cy="129.0" r="1.62"/><circle cx="199.3" cy="133.5" r="1.62"/><circle cx="199.3" cy="138.0" r="1.62"/><circle cx="199.3" cy="142.5" r="1.62"/><circle cx="199.3" cy="147.0" r="1.62"/><circle cx="199.3" cy="151.4" r="1.62"/><circle cx="199.3" cy="155.9" r="1.62"/><circle cx="199.3" cy="160.4" r="1.62"/><circle cx="199.3" cy="164.9" r="1.62"/><circle cx="199.3" cy="169.4" r="1.62"/><circle cx="203.8" cy="106.6" r="1.62"/><circle cx="203.8" cy="111.1" r="1.62"/><circle cx="203.8" cy="115.6" r="1.62"/><circle cx="203.8" cy="120.1" r="1.62"/><circle cx="203.8" cy="124.5" r="1.62"/><circle cx="203.8" cy="129.0" r="1.62"/><circle cx="203.8" cy="133.5" r="1.62"/><circle cx="203.8" cy="138.0" r="1.62"/><circle cx="203.8" cy="142.5" r="1.62"/><circle cx="203.8" cy="147.0" r="1.62"/><circle cx="203.8" cy="151.4" r="1.62"/><circle cx="203.8" cy="155.9" r="1.62"/><circle cx="203.8" cy="160.4" r="1.62"/><circle cx="208.3" cy="111.1" r="1.62"/><circle cx="208.3" cy="115.6" r="1.62"/><circle cx="208.3" cy="120.1" r="1.62"/><circle cx="208.3" cy="124.5" r="1.62"/><circle cx="208.3" cy="129.0" r="1.62"/><circle cx="208.3" cy="133.5" r="1.62"/><circle cx="208.3" cy="138.0" r="1.62"/><circle cx="212.8" cy="115.6" r="1.62"/><circle cx="212.8" cy="120.1" r="1.62"/><circle cx="212.8" cy="124.5" r="1.62"/><circle cx="212.8" cy="129.0" r="1.62"/><circle cx="212.8" cy="133.5" r="1.62"/><circle cx="217.3" cy="115.6" r="1.62"/><circle cx="217.3" cy="120.1" r="1.62"/><circle cx="217.3" cy="124.5" r="1.62"/><circle cx="217.3" cy="129.0" r="1.62"/></g>
<path d="M 90.829 138.768 A 62.01 62.01 0 1 0 208.781 126.371" fill="none" stroke="#B2844A" stroke-width="1.49" stroke-linecap="round"/>
<path d="M 151.700 88.590 A 62.01 62.01 0 0 0 139.868 89.729" fill="none" stroke="#B2844A" stroke-width="1.49" stroke-linecap="round"/>
<path d="M 188.419 59.717 A 98.02 98.02 0 1 0 239.800 107.631" fill="none" stroke="#B2844A" stroke-width="1.49" stroke-linecap="round"/>
<path d="M 200.399 30.066 A 130.0 130.0 0 1 0 264.283 85.600" fill="none" stroke="#B2844A" stroke-width="1.49" stroke-linecap="round"/>
<line x1="159.2" y1="142.5" x2="233.3" y2="63.1" stroke="#B2844A" stroke-width="2.47" stroke-linecap="round"/>
<circle cx="151.7" cy="150.6" r="9.36" fill="#B2844A"/>
<circle cx="238.6" cy="57.4" r="8.58" fill="#B2844A"/></svg>