<svg xmlns="http://www.w3.org/2000/svg" viewBox="0 0 1197 302" width="1197" height="302">
<g fill="#E2D8C6"><circle cx="82.7" cy="115.6" r="1.62"/><circle cx="82.7" cy="120.1" r="1.62"/><circle cx="82.7" cy="124.5" r="1.62"/><circle cx="82.7" cy="129.0" r="1.62"/><circle cx="87.2" cy="111.1" r="1.62"/><circle cx="87.2" cy="115.6" r="1.62"/><circle cx="87.2" cy="120.1" r="1.62"/><circle cx="87.2" cy="124.5" r="1.62"/><circle cx="87.2" cy="129.0" r="1.62"/><circle cx="91.7" cy="111.1" r="1.62"/><circle cx="91.7" cy="115.6" r="1.62"/><circle cx="91.7" cy="120.1" r="1.62"/><circle cx="91.7" cy="124.5" r="1.62"/><circle cx="91.7" cy="129.0" r="1.62"/><circle cx="91.7" cy="133.5" r="1.62"/><circle cx="96.2" cy="88.7" r="1.62"/><circle cx="96.2" cy="93.1" r="1.62"/><circle cx="96.2" cy="97.6" r="1.62"/><circle cx="96.2" cy="102.1" r="1.62"/><circle cx="96.2" cy="106.6" r="1.62"/><circle cx="96.2" cy="111.1" r="1.62"/><circle cx="96.2" cy="115.6" r="1.62"/><circle cx="96.2" cy="120.1" r="1.62"/><circle cx="96.2" cy="124.5" r="1.62"/><circle cx="96.2" cy="129.0" r="1.62"/><circle cx="96.2" cy="133.5" r="1.62"/><circle cx="100.7" cy="88.7" r="1.62"/><circle cx="100.7" cy="93.1" r="1.62"/><circle cx="100.7" cy="97.6" r="1.62"/><circle cx="100.7" cy="102.1" r="1.62"/><circle cx="100.7" cy="106.6" r="1.62"/><circle cx="100.7" cy="111.1" r="1.62"/><circle cx="100.7" cy="115.6" r="1.62"/><circle cx="100.7" cy="120.1" r="1.62"/><circle cx="100.7" cy="124.5" r="1.62"/><circle cx="100.7" cy="129.0" r="1.62"/><circle cx="100.7" cy="133.5" r="1.62"/><circle cx="105.2" cy="93.1" r="1.62"/><circle cx="105.2" cy="97.6" r="1.62"/><circle cx="105.2" cy="102.1" r="1.62"/><circle cx="105.2" cy="106.6" r="1.62"/><circle cx="105.2" cy="111.1" r="1.62"/><circle cx="105.2" cy="115.6" r="1.62"/><circle cx="105.2" cy="120.1" r="1.62"/><circle cx="105.2" cy="124.5" r="1.62"/><circle cx="105.2" cy="129.0" r="1.62"/><circle cx="109.6" cy="93.1" r="1.62"/><circle cx="109.6" cy="97.6" r="1.62"/><circle cx="109.6" cy="102.1" r="1.62"/><circle cx="109.6" cy="106.6" r="1.62"/><circle cx="109.6" cy="111.1" r="1.62"/><circle cx="109.6" cy="115.6" r="1.62"/><circle cx="109.6" cy="120.1" r="1.62"/><circle cx="109.6" cy="124.5" r="1.62"/><circle cx="109.6" cy="129.0" r="1.62"/><circle cx="114.1" cy="79.7" r="1.62"/><circle cx="114.1" cy="84.2" r="1.62"/><circle cx="114.1" cy="88.7" r="1.62"/><circle cx="114.1" cy="93.1" r="1.62"/><circle cx="114.1" cy="97.6" r="1.62"/><circle cx="114.1" cy="102.1" r="1.62"/><circle cx="114.1" cy="106.6" r="1.62"/><circle cx="114.1" cy="111.1" r="1.62"/><circle cx="114.1" cy="115.6" r="1.62"/><circle cx="114.1" cy="120.1" r="1.62"/><circle cx="114.1" cy="124.5" r="1.62"/><circle cx="114.1" cy="129.0" r="1.62"/><circle cx="114.1" cy="133.5" r="1.62"/><circle cx="114.1" cy="138.0" r="1.62"/><circle cx="118.6" cy="79.7" r="1.62"/><circle cx="118.6" cy="84.2" r="1.62"/><circle cx="118.6" cy="88.7" r="1.62"/><circle cx="118.6" cy="93.1" r="1.62"/><circle cx="118.6" cy="97.6" r="1.62"/><circle cx="118.6" cy="102.1" r="1.62"/><circle cx="118.6" cy="106.6" r="1.62"/><circle cx="118.6" cy="111.1" r="1.62"/><circle cx="118.6" cy="115.6" r="1.62"/><circle cx="118.6" cy="120.1" r="1.62"/><circle cx="118.6" cy="124.5" r="1.62"/><circle cx="118.6" cy="129.0" r="1.62"/><circle cx="118.6" cy="133.5" r="1.62"/><circle cx="118.6" cy="138.0" r="1.62"/><circle cx="123.1" cy="79.7" r="1.62"/><circle cx="123.1" cy="84.2" r="1.62"/><circle cx="123.1" cy="88.7" r="1.62"/><circle cx="123.1" cy="93.1" r="1.62"/><circle cx="123.1" cy="97.6" r="1.62"/><circle cx="123.1" cy="102.1" r="1.62"/><circle cx="123.1" cy="106.6" r="1.62"/><circle cx="123.1" cy="111.1" r="1.62"/><circle cx="123.1" cy="115.6" r="1.62"/><circle cx="123.1" cy="120.1" r="1.62"/><circle cx="123.1" cy="124.5" r="1.62"/><circle cx="123.1" cy="129.0" r="1.62"/><circle cx="123.1" cy="133.5" r="1.62"/><circle cx="123.1" cy="138.0" r="1.62"/><circle cx="123.1" cy="142.5" r="1.62"/><circle cx="127.6" cy="75.2" r="1.62"/><circle cx="127.6" cy="79.7" r="1.62"/><circle cx="127.6" cy="84.2" r="1.62"/><circle cx="127.6" cy="88.7" r="1.62"/><circle cx="127.6" cy="93.1" r="1.62"/><circle cx="127.6" cy="97.6" r="1.62"/><circle cx="127.6" cy="102.1" r="1.62"/><circle cx="127.6" cy="106.6" r="1.62"/><circle cx="127.6" cy="111.1" r="1.62"/><circle cx="127.6" cy="115.6" r="1.62"/><circle cx="127.6" cy="120.1" r="1.62"/><circle cx="127.6" cy="124.5" r="1.62"/><circle cx="127.6" cy="129.0" r="1.62"/><circle cx="127.6" cy="133.5" r="1.62"/><circle cx="127.6" cy="138.0" r="1.62"/><circle cx="127.6" cy="142.5" r="1.62"/><circle cx="132.1" cy="88.7" r="1.62"/><circle cx="132.1" cy="93.1" r="1.62"/><circle cx="132.1" cy="97.6" r="1.62"/><circle cx="132.1" cy="102.1" r="1.62"/><circle cx="132.1" cy="106.6" r="1.62"/><circle cx="132.1" cy="111.1" r="1.62"/><circle cx="132.1" cy="115.6" r="1.62"/><circle cx="132.1" cy="120.1" r="1.62"/><circle cx="132.1" cy="124.5" r="1.62"/><circle cx="132.1" cy="129.0" r="1.62"/><circle cx="132.1" cy="133.5" r="1.62"/><circle cx="132.1" cy="138.0" r="1.62"/><circle cx="132.1" cy="142.5" r="1.62"/><circle cx="132.1" cy="147.0" r="1.62"/><circle cx="132.1" cy="151.4" r="1.62"/><circle cx="136.6" cy="88.7" r="1.62"/><circle cx="136.6" cy="93.1" r="1.62"/><circle cx="136.6" cy="97.6" r="1.62"/><circle cx="136.6" cy="102.1" r="1.62"/><circle cx="136.6" cy="106.6" r="1.62"/><circle cx="136.6" cy="111.1" r="1.62"/><circle cx="136.6" cy="115.6" r="1.62"/><circle cx="136.6" cy="120.1" r="1.62"/><circle cx="136.6" cy="124.5" r="1.62"/><circle cx="136.6" cy="129.0" r="1.62"/><circle cx="136.6" cy="133.5" r="1.62"/><circle cx="136.6" cy="138.0" r="1.62"/><circle cx="136.6" cy="142.5" r="1.62"/><circle cx="136.6" cy="147.0" r="1.62"/><circle cx="136.6" cy="151.4" r="1.62"/><circle cx="136.6" cy="155.9" r="1.62"/><circle cx="136.6" cy="169.4" r="1.62"/><circle cx="141.0" cy="88.7" r="1.62"/><circle cx="141.0" cy="93.1" r="1.62"/><circle cx="141.0" cy="97.6" r="1.62"/><circle cx="141.0" cy="102.1" r="1.62"/><circle cx="141.0" cy="106.6" r="1.62"/><circle cx="141.0" cy="111.1" r="1.62"/><circle cx="141.0" cy="115.6" r="1.62"/><circle cx="141.0" cy="120.1" r="1.62"/><circle cx="141.0" cy="124.5" r="1.62"/><circle cx="141.0" cy="129.0" r="1.62"/><circle cx="141.0" cy="133.5" r="1.62"/><circle cx="141.0" cy="138.0" r="1.62"/><circle cx="141.0" cy="142.5" r="1.62"/><circle cx="141.0" cy="147.0" r="1.62"/><circle cx="141.0" cy="151.4" r="1.62"/><circle cx="141.0" cy="155.9" r="1.62"/><circle cx="141.0" cy="160.4" r="1.62"/><circle cx="141.0" cy="164.9" r="1.62"/><circle cx="141.0" cy="169.4" r="1.62"/><circle cx="141.0" cy="173.9" r="1.62"/><circle cx="141.0" cy="205.3" r="1.62"/><circle cx="145.5" cy="88.7" r="1.62"/><circle cx="145.5" cy="93.1" r="1.62"/><circle cx="145.5" cy="97.6" r="1.62"/><circle cx="145.5" cy="102.1" r="1.62"/><circle cx="145.5" cy="106.6" r="1.62"/><circle cx="145.5" cy="111.1" r="1.62"/><circle cx="145.5" cy="115.6" r="1.62"/><circle cx="145.5" cy="120.1" r="1.62"/><circle cx="145.5" cy="124.5" r="1.62"/><circle cx="145.5" cy="129.0" r="1.62"/><circle cx="145.5" cy="133.5" r="1.62"/><circle cx="145.5" cy="138.0" r="1.62"/><circle cx="145.5" cy="142.5" r="1.62"/><circle cx="145.5" cy="147.0" r="1.62"/><circle cx="145.5" cy="151.4" r="1.62"/><circle cx="145.5" cy="155.9" r="1.62"/><circle cx="145.5" cy="160.4" r="1.62"/><circle cx="145.5" cy="164.9" r="1.62"/><circle cx="145.5" cy="169.4" r="1.62"/><circle cx="145.5" cy="173.9" r="1.62"/><circle cx="145.5" cy="178.4" r="1.62"/><circle cx="145.5" cy="200.8" r="1.62"/><circle cx="145.5" cy="205.3" r="1.62"/><circle cx="150.0" cy="88.7" r="1.62"/><circle cx="150.0" cy="93.1" r="1.62"/><circle cx="150.0" cy="97.6" r="1.62"/><circle cx="150.0" cy="102.1" r="1.62"/><circle cx="150.0" cy="106.6" r="1.62"/><circle cx="150.0" cy="111.1" r="1.62"/><circle cx="150.0" cy="115.6" r="1.62"/><circle cx="150.0" cy="120.1" r="1.62"/><circle cx="150.0" cy="124.5" r="1.62"/><circle cx="150.0" cy="129.0" r="1.62"/><circle cx="150.0" cy="133.5" r="1.62"/><circle cx="150.0" cy="138.0" r="1.62"/><circle cx="150.0" cy="142.5" r="1.62"/><circle cx="150.0" cy="147.0" r="1.62"/><circle cx="150.0" cy="151.4" r="1.62"/><circle cx="150.0" cy="155.9" r="1.62"/><circle cx="150.0" cy="160.4" r="1.62"/><circle cx="150.0" cy="164.9" r="1.62"/><circle cx="150.0" cy="169.4" r="1.62"/><circle cx="150.0" cy="173.9" r="1.62"/><circle cx="150.0" cy="178.4" r="1.62"/><circle cx="150.0" cy="182.8" r="1.62"/><circle cx="150.0" cy="187.3" r="1.62"/><circle cx="150.0" cy="196.3" r="1.62"/><circle cx="150.0" cy="200.8" r="1.62"/><circle cx="150.0" cy="205.3" r="1.62"/><circle cx="150.0" cy="209.8" r="1.62"/><circle cx="154.5" cy="88.7" r="1.62"/><circle cx="154.5" cy="93.1" r="1.62"/><circle cx="154.5" cy="97.6" r="1.62"/><circle cx="154.5" cy="102.1" r="1.62"/><circle cx="154.5" cy="106.6" r="1.62"/><circle cx="154.5" cy="111.1" r="1.62"/><circle cx="154.5" cy="115.6" r="1.62"/><circle cx="154.5" cy="120.1" r="1.62"/><circle cx="154.5" cy="124.5" r="1.62"/><circle cx="154.5" cy="129.0" r="1.62"/><circle cx="154.5" cy="133.5" r="1.62"/><circle cx="154.5" cy="138.0" r="1.62"/><circle cx="154.5" cy="142.5" r="1.62"/><circle cx="154.5" cy="147.0" r="1.62"/><circle cx="154.5" cy="151.4" r="1.62"/><circle cx="154.5" cy="155.9" r="1.62"/><circle cx="154.5" cy="160.4" r="1.62"/><circle cx="154.5" cy="164.9" r="1.62"/><circle cx="154.5" cy="169.4" r="1.62"/><circle cx="154.5" cy="173.9" r="1.62"/><circle cx="154.5" cy="178.4" r="1.62"/><circle cx="154.5" cy="182.8" r="1.62"/><circle cx="154.5" cy="187.3" r="1.62"/><circle cx="154.5" cy="191.8" r="1.62"/><circle cx="154.5" cy="196.3" r="1.62"/><circle cx="154.5" cy="200.8" r="1.62"/><circle cx="154.5" cy="205.3" r="1.62"/><circle cx="154.5" cy="209.8" r="1.62"/><circle cx="154.5" cy="214.2" r="1.62"/><circle cx="154.5" cy="218.7" r="1.62"/><circle cx="159.0" cy="79.7" r="1.62"/><circle cx="159.0" cy="84.2" r="1.62"/><circle cx="159.0" cy="88.7" r="1.62"/><circle cx="159.0" cy="93.1" r="1.62"/><circle cx="159.0" cy="97.6" r="1.62"/><circle cx="159.0" cy="102.1" r="1.62"/><circle cx="159.0" cy="106.6" r="1.62"/><circle cx="159.0" cy="111.1" r="1.62"/><circle cx="159.0" cy="115.6" r="1.62"/><circle cx="159.0" cy="120.1" r="1.62"/><circle cx="159.0" cy="124.5" r="1.62"/><circle cx="159.0" cy="129.0" r="1.62"/><circle cx="159.0" cy="133.5" r="1.62"/><circle cx="159.0" cy="138.0" r="1.62"/><circle cx="159.0" cy="142.5" r="1.62"/><circle cx="159.0" cy="147.0" r="1.62"/><circle cx="159.0" cy="151.4" r="1.62"/><circle cx="159.0" cy="155.9" r="1.62"/><circle cx="159.0" cy="160.4" r="1.62"/><circle cx="159.0" cy="164.9" r="1.62"/><circle cx="159.0" cy="169.4" r="1.62"/><circle cx="159.0" cy="173.9" r="1.62"/><circle cx="159.0" cy="178.4" r="1.62"/><circle cx="159.0" cy="182.8" r="1.62"/><circle cx="159.0" cy="187.3" r="1.62"/><circle cx="159.0" cy="191.8" r="1.62"/><circle cx="159.0" cy="196.3" r="1.62"/><circle cx="159.0" cy="200.8" r="1.62"/><circle cx="159.0" cy="205.3" r="1.62"/><circle cx="159.0" cy="209.8" r="1.62"/><circle cx="163.5" cy="88.7" r="1.62"/><circle cx="163.5" cy="93.1" r="1.62"/><circle cx="163.5" cy="97.6" r="1.62"/><circle cx="163.5" cy="102.1" r="1.62"/><circle cx="163.5" cy="106.6" r="1.62"/><circle cx="163.5" cy="111.1" r="1.62"/><circle cx="163.5" cy="115.6" r="1.62"/><circle cx="163.5" cy="120.1" r="1.62"/><circle cx="163.5" cy="124.5" r="1.62"/><circle cx="163.5" cy="129.0" r="1.62"/><circle cx="163.5" cy="133.5" r="1.62"/><circle cx="163.5" cy="138.0" r="1.62"/><circle cx="163.5" cy="142.5" r="1.62"/><circle cx="163.5" cy="147.0" r="1.62"/><circle cx="163.5" cy="151.4" r="1.62"/><circle cx="163.5" cy="155.9" r="1.62"/><circle cx="163.5" cy="160.4" r="1.62"/><circle cx="163.5" cy="164.9" r="1.62"/><circle cx="163.5" cy="169.4" r="1.62"/><circle cx="163.5" cy="173.9" r="1.62"/><circle cx="163.5" cy="178.4" r="1.62"/><circle cx="163.5" cy="182.8" r="1.62"/><circle cx="163.5" cy="187.3" r="1.62"/><circle cx="163.5" cy="191.8" r="1.62"/><circle cx="163.5" cy="196.3" r="1.62"/><circle cx="163.5" cy="200.8" r="1.62"/><circle cx="163.5" cy="205.3" r="1.62"/><circle cx="167.9" cy="97.6" r="1.62"/><circle cx="167.9" cy="102.1" r="1.62"/><circle cx="167.9" cy="106.6" r="1.62"/><circle cx="167.9" cy="111.1" r="1.62"/><circle cx="167.9" cy="115.6" r="1.62"/><circle cx="167.9" cy="120.1" r="1.62"/><circle cx="167.9" cy="124.5" r="1.62"/><circle cx="167.9" cy="129.0" r="1.62"/><circle cx="167.9" cy="133.5" r="1.62"/><circle cx="167.9" cy="138.0" r="1.62"/><circle cx="167.9" cy="142.5" r="1.62"/><circle cx="167.9" cy="147.0" r="1.62"/><circle cx="167.9" cy="151.4" r="1.62"/><circle cx="167.9" cy="155.9" r="1.62"/><circle cx="167.9" cy="160.4" r="1.62"/><circle cx="167.9" cy="164.9" r="1.62"/><circle cx="167.9" cy="169.4" r="1.62"/><circle cx="167.9" cy="173.9" r="1.62"/><circle cx="167.9" cy="178.4" r="1.62"/><circle cx="167.9" cy="182.8" r="1.62"/><circle cx="167.9" cy="187.3" r="1.62"/><circle cx="167.9" cy="191.8" r="1.62"/><circle cx="167.9" cy="196.3" r="1.62"/><circle cx="167.9" cy="200.8" r="1.62"/><circle cx="172.4" cy="97.6" r="1.62"/><circle cx="172.4" cy="102.1" r="1.62"/><circle cx="172.4" cy="106.6" r="1.62"/><circle cx="172.4" cy="111.1" r="1.62"/><circle cx="172.4" cy="115.6" r="1.62"/><circle cx="172.4" cy="120.1" r="1.62"/><circle cx="172.4" cy="124.5" r="1.62"/><circle cx="172.4" cy="129.0" r="1.62"/><circle cx="172.4" cy="133.5" r="1.62"/><circle cx="172.4" cy="138.0" r="1.62"/><circle cx="172.4" cy="142.5" r="1.62"/><circle cx="172.4" cy="147.0" r="1.62"/><circle cx="172.4" cy="151.4" r="1.62"/><circle cx="172.4" cy="155.9" r="1.62"/><circle cx="172.4" cy="160.4" r="1.62"/><circle cx="172.4" cy="164.9" r="1.62"/><circle cx="172.4" cy="169.4" r="1.62"/><circle cx="172.4" cy="173.9" r="1.62"/><circle cx="172.4" cy="178.4" r="1.62"/><circle cx="172.4" cy="182.8" r="1.62"/><circle cx="172.4" cy="187.3" r="1.62"/><circle cx="176.9" cy="97.6" r="1.62"/><circle cx="176.9" cy="102.1" r="1.62"/><circle cx="176.9" cy="106.6" r="1.62"/><circle cx="176.9" cy="111.1" r="1.62"/><circle cx="176.9" cy="115.6" r="1.62"/><circle cx="176.9" cy="120.1" r="1.62"/><circle cx="176.9" cy="124.5" r="1.62"/><circle cx="176.9" cy="129.0" r="1.62"/><circle cx="176.9" cy="133.5" r="1.62"/><circle cx="176.9" cy="138.0" r="1.62"/><circle cx="176.9" cy="142.5" r="1.62"/><circle cx="176.9" cy="147.0" r="1.62"/><circle cx="176.9" cy="151.4" r="1.62"/><circle cx="176.9" cy="155.9" r="1.62"/><circle cx="176.9" cy="160.4" r="1.62"/><circle cx="176.9" cy="164.9" r="1.62"/><circle cx="176.9" cy="169.4" r="1.62"/><circle cx="176.9" cy="173.9" r="1.62"/><circle cx="176.9" cy="178.4" r="1.62"/><circle cx="176.9" cy="182.8" r="1.62"/><circle cx="181.4" cy="102.1" r="1.62"/><circle cx="181.4" cy="106.6" r="1.62"/><circle cx="181.4" cy="111.1" r="1.62"/><circle cx="181.4" cy="115.6" r="1.62"/><circle cx="181.4" cy="120.1" r="1.62"/><circle cx="181.4" cy="124.5" r="1.62"/><circle cx="181.4" cy="129.0" r="1.62"/><circle cx="181.4" cy="133.5" r="1.62"/><circle cx="181.4" cy="138.0" r="1.62"/><circle cx="181.4" cy="142.5" r="1.62"/><circle cx="181.4" cy="147.0" r="1.62"/><circle cx="181.4" cy="151.4" r="1.62"/><circle cx="181.4" cy="155.9" r="1.62"/><circle cx="181.4" cy="160.4" r="1.62"/><circle cx="181.4" cy="164.9" r="1.62"/><circle cx="181.4" cy="169.4" r="1.62"/><circle cx="181.4" cy="173.9" r="1.62"/><circle cx="181.4" cy="178.4" r="1.62"/><circle cx="181.4" cy="182.8" r="1.62"/><circle cx="185.9" cy="102.1" r="1.62"/><circle cx="185.9" cy="106.6" r="1.62"/><circle cx="185.9" cy="111.1" r="1.62"/><circle cx="185.9" cy="115.6" r="1.62"/><circle cx="185.9" cy="120.1" r="1.62"/><circle cx="185.9" cy="124.5" r="1.62"/><circle cx="185.9" cy="129.0" r="1.62"/><circle cx="185.9" cy="133.5" r="1.62"/><circle cx="185.9" cy="138.0" r="1.62"/><circle cx="185.9" cy="142.5" r="1.62"/><circle cx="185.9" cy="147.0" r="1.62"/><circle cx="185.9" cy="151.4" r="1.62"/><circle cx="185.9" cy="155.9" r="1.62"/><circle cx="185.9" cy="160.4" r="1.62"/><circle cx="185.9" cy="164.9" r="1.62"/><circle cx="185.9" cy="169.4" r="1.62"/><circle cx="185.9" cy="173.9" r="1.62"/><circle cx="185.9" cy="178.4" r="1.62"/><circle cx="190.4" cy="106.6" r="1.62"/><circle cx="190.4" cy="111.1" r="1.62"/><circle cx="190.4" cy="115.6" r="1.62"/><circle cx="190.4" cy="120.1" r="1.62"/><circle cx="190.4" cy="124.5" r="1.62"/><circle cx="190.4" cy="129.0" r="1.62"/><circle cx="190.4" cy="133.5" r="1.62"/><circle cx="190.4" cy="138.0" r="1.62"/><circle cx="190.4" cy="142.5" r="1.62"/><circle cx="190.4" cy="147.0" r="1.62"/><circle cx="190.4" cy="151.4" r="1.62"/><circle cx="190.4" cy="155.9" r="1.62"/><circle cx="190.4" cy="160.4" r="1.62"/><circle cx="190.4" cy="164.9" r="1.62"/><circle cx="190.4" cy="169.4" r="1.62"/><circle cx="190.4" cy="173.9" r="1.62"/><circle cx="190.4" cy="178.4" r="1.62"/><circle cx="194.9" cy="106.6" r="1.62"/><circle cx="194.9" cy="111.1" r="1.62"/><circle cx="194.9" cy="115.6" r="1.62"/><circle cx="194.9" cy="120.1" r="1.62"/><circle cx="194.9" cy="124.5" r="1.62"/><circle cx="194.9" cy="129.0" r="1.62"/><circle cx="194.9" cy="133.5" r="1.62"/><circle cx="194.9" cy="138.0" r="1.62"/><circle cx="194.9" cy="142.5" r="1.62"/><circle cx="194.9" cy="147.0" r="1.62"/><circle cx="194.9" cy="151.4" r="1.62"/><circle cx="194.9" cy="155.9" r="1.62"/><circle cx="194.9" cy="160.4" r="1.62"/><circle cx="194.9" cy="164.9" r="1.62"/><circle cx="194.9" cy="169.4" r="1.62"/><circle cx="194.9" cy="173.9" r="1.62"/><circle cx="194.9" cy="178.4" r="1.62"/><circle cx="199.3" cy="106.6" r="1.62"/><circle cx="199.3" cy="111.1" r="1.62"/><circle cx="199.3" cy="115.6" r="1.62"/><circle cx="199.3" cy="120.1" r="1.62"/><circle cx="199.3" cy="124.5" r="1.62"/><circle cx="199.3" cy="129.0" r="1.62"/><circle cx="199.3" cy="133.5" r="1.62"/><circle cx="199.3" cy="138.0" r="1.62"/><circle cx="199.3" cy="142.5" r="1.62"/><circle cx="199.3" cy="147.0" r="1.62"/><circle cx="199.3" cy="151.4" r="1.62"/><circle cx="199.3" cy="155.9" r="1.62"/><circle cx="199.3" cy="160.4" r="1.62"/><circle cx="199.3" cy="164.9" r="1.62"/><circle cx="199.3" cy="169.4" r="1.62"/><circle cx="203.8" cy="106.6" r="1.62"/><circle cx="203.8" cy="111.1" r="1.62"/><circle cx="203.8" cy="115.6" r="1.62"/><circle cx="203.8" cy="120.1" r="1.62"/><circle cx="203.8" cy="124.5" r="1.62"/><circle cx="203.8" cy="129.0" r="1.62"/><circle cx="203.8" cy="133.5" r="1.62"/><circle cx="203.8" cy="138.0" r="1.62"/><circle cx="203.8" cy="142.5" r="1.62"/><circle cx="203.8" cy="147.0" r="1.62"/><circle cx="203.8" cy="151.4" r="1.62"/><circle cx="203.8" cy="155.9" r="1.62"/><circle cx="203.8" cy="160.4" r="1.62"/><circle cx="208.3" cy="111.1" r="1.62"/><circle cx="208.3" cy="115.6" r="1.62"/><circle cx="208.3" cy="120.1" r="1.62"/><circle cx="208.3" cy="124.5" r="1.62"/><circle cx="208.3" cy="129.0" r="1.62"/><circle cx="208.3" cy="133.5" r="1.62"/><circle cx="208.3" cy="138.0" r="1.62"/><circle cx="212.8" cy="115.6" r="1.62"/><circle cx="212.8" cy="120.1" r="1.62"/><circle cx="212.8" cy="124.5" r="1.62"/><circle cx="212.8" cy="129.0" r="1.62"/><circle cx="212.8" cy="133.5" r="1.62"/><circle cx="217.3" cy="115.6" r="1.62"/><circle cx="217.3" cy="120.1" r="1.62"/><circle cx="217.3" cy="124.5" r="1.62"/><circle cx="217.3" cy="129.0" r="1.62"/></g>
<path d="M 90.829 138.768 A 62.01 62.01 0 1 0 208.781 126.371" fill="none" stroke="#B2844A" stroke-width="1.49" stroke-linecap="round"/>
<path d="M 151.700 88.590 A 62.01 62.01 0 0 0 139.868 89.729" fill="none" stroke="#B2844A" stroke-width="1.49" stroke-linecap="round"/>
<path d="M 188.419 59.717 A 98.02 98.02 0 1 0 239.800 107.631" fill="none" stroke="#B2844A" stroke-width="1.49" stroke-linecap="round"/>
<path d="M 200.399 30.066 A 130.0 130.0 0 1 0 264.283 85.600" fill="none" stroke="#B2844A" stroke-width="1.49" stroke-linecap="round"/>
<line x1="159.2" y1="142.5" x2="233.3" y2="63.1" stroke="#B2844A" stroke-width="2.47" stroke-linecap="round"/>
<circle cx="151.7" cy="150.6" r="9.36" fill="#B2844A"/>
<circle cx="238.6" cy="57.4" r="8.58" fill="#B2844A"/>
<g transform="translate(337.0,214.0)" fill="#131521"><path d="M6.288135593220339 -106.0Q9.432203389830509 -105.85028248587571 14.522598870056498 -105.70056497175142Q19.612994350282488 -105.55084745762713 24.553672316384183 -105.55084745762713Q31.59039548022599 -105.55084745762713 38.02824858757062 -105.70056497175142Q44.46610169491526 -105.85028248587571 47.16101694915255 -105.85028248587571Q59.28813559322034 -105.85028248587571 67.29802259887006 -102.40677966101696Q75.30790960451978 -98.9632768361582 79.27542372881356 -93.0494350282486Q83.24293785310735 -87.13559322033899 83.24293785310735 -79.7994350282486Q83.24293785310735 -75.30790960451978 81.44632768361583 -70.21751412429379Q79.6497175141243 -65.1271186440678 75.23305084745763 -60.63559322033899Q70.81638418079096 -56.14406779661017 63.18079096045198 -53.22457627118644Q55.545197740113 -50.30508474576271 43.86723163841808 -50.30508474576271H29.49435028248588V-53.29943502824859H42.37005649717514Q53.0 -53.29943502824859 58.61440677966102 -56.668079096045204Q64.22881355932203 -60.03672316384181 66.25 -65.65112994350284Q68.27118644067797 -71.26553672316385 68.27118644067797 -78.15254237288136Q68.27118644067797 -89.98022598870057 62.656779661016955 -96.49293785310735Q57.04237288135594 -103.00564971751413 43.4180790960452 -103.00564971751413Q36.53107344632769 -103.00564971751413 34.43502824858757 -100.46045197740114Q32.33898305084746 -97.91525423728814 32.33898305084746 -90.12994350282486V-15.870056497175142Q32.33898305084746 -10.480225988700566 33.23728813559322 -7.785310734463277Q34.13559322033898 -5.090395480225989 36.755649717514125 -4.192090395480227Q39.37570621468927 -3.2937853107344637 44.46610169491526 -2.994350282485876V0.0Q41.0225988700565 -0.2994350282485876 35.85734463276836 -0.3742937853107345Q30.69209039548023 -0.4491525423728814 25.451977401129945 -0.4491525423728814Q19.612994350282488 -0.4491525423728814 14.522598870056498 -0.3742937853107345Q9.432203389830509 -0.2994350282485876 6.288135593220339 0.0V-2.994350282485876Q11.378531073446329 -3.2937853107344637 13.99858757062147 -4.192090395480227Q16.618644067796613 -5.090395480225989 17.516949152542374 -7.785310734463277Q18.415254237288135 -10.480225988700566 18.415254237288135 -15.870056497175142V-90.12994350282486Q18.415254237288135 -95.66949152542374 17.516949152542374 -98.28954802259888Q16.618644067796613 -100.90960451977402 13.99858757062147 -101.88276836158192Q11.378531073446329 -102.85593220338984 6.288135593220339 -103.00564971751413ZM30.093220338983052 -52.85028248587571Q38.17796610169492 -52.55084745762712 42.81920903954803 -52.17655367231639Q47.460451977401135 -51.802259887005654 50.37994350282486 -51.502824858757066Q53.29943502824859 -51.20338983050848 55.994350282485875 -50.7542372881356Q66.02542372881356 -49.10734463276837 70.44209039548022 -44.6906779661017Q74.85875706214689 -40.27401129943503 76.954802259887 -30.991525423728817L80.69774011299435 -15.720338983050848Q82.19491525423729 -9.132768361581922 83.76694915254237 -6.213276836158193Q85.33898305084746 -3.2937853107344637 88.63276836158192 -3.4435028248587574Q91.17796610169492 -3.593220338983051 92.89971751412429 -5.09039548022599Q94.62146892655367 -6.587570621468927 96.5677966101695 -9.132768361581922L98.81355932203391 -7.4858757062146895Q95.66949152542374 -2.844632768361582 92.30084745762713 -0.37429378531073443Q88.93220338983052 2.0960451977401133 82.79378531073446 2.0960451977401133Q77.2542372881356 2.0960451977401133 73.06214689265536 -1.1977401129943503Q68.87005649717514 -4.491525423728814 66.77401129943503 -14.073446327683616L63.48022598870057 -29.045197740112997Q62.132768361581924 -35.483050847457626 60.41101694915255 -40.199152542372886Q58.68926553672317 -44.91525423728814 55.62005649717514 -47.610169491525426Q52.55084745762712 -50.30508474576271 46.56214689265537 -50.30508474576271H30.39265536723164Z"/><path d="M122.61864406779662 1.0480225988700567Q116.48022598870057 1.0480225988700567 111.98870056497177 -1.2725988700564972Q107.49717514124295 -3.593220338983051 105.1765536723164 -7.785310734463277Q102.85593220338984 -11.977401129943503 102.85593220338984 -17.516949152542374Q102.85593220338984 -24.1045197740113 105.92514124293785 -28.296610169491526Q108.99435028248588 -32.48870056497175 113.78531073446328 -35.03389830508475Q118.57627118644069 -37.579096045197744 123.89124293785312 -39.30084745762712Q129.20621468926555 -41.0225988700565 133.99717514124296 -42.594632768361585Q138.78813559322035 -44.16666666666667 141.8573446327684 -46.26271186440678Q144.9265536723164 -48.35875706214689 144.9265536723164 -51.802259887005654V-61.08474576271187Q144.9265536723164 -67.37288135593221 143.0550847457627 -70.66666666666667Q141.18361581920905 -73.96045197740114 138.03954802259886 -75.08333333333334Q134.8954802259887 -76.20621468926554 131.00282485875707 -76.20621468926554Q127.25988700564973 -76.20621468926554 122.99293785310735 -75.15819209039549Q118.72598870056498 -74.11016949152543 116.18079096045199 -70.81638418079096Q119.02542372881356 -70.21751412429379 121.12146892655369 -67.82203389830508Q123.2175141242938 -65.42655367231639 123.2175141242938 -61.683615819209045Q123.2175141242938 -57.940677966101696 120.82203389830511 -55.76977401129943Q118.4265536723164 -53.59887005649718 114.68361581920905 -53.59887005649718Q110.34180790960453 -53.59887005649718 108.32062146892656 -56.36864406779661Q106.2994350282486 -59.13841807909605 106.2994350282486 -62.5819209039548Q106.2994350282486 -66.47457627118645 108.24576271186442 -68.87005649717514Q110.19209039548024 -71.26553672316385 113.18644067796612 -73.36158192090396Q116.62994350282487 -75.75706214689266 122.09463276836159 -77.47881355932205Q127.55932203389831 -79.20056497175142 134.44632768361583 -79.20056497175142Q140.58474576271186 -79.20056497175142 144.9265536723164 -77.77824858757063Q149.2683615819209 -76.35593220338984 152.1129943502825 -73.66101694915254Q156.00564971751413 -70.0677966101695 157.20338983050848 -64.90254237288136Q158.40112994350284 -59.737288135593225 158.40112994350284 -52.55084745762712V-10.929378531073446Q158.40112994350284 -7.186440677966102 159.52401129943505 -5.53954802259887Q160.64689265536725 -3.8926553672316384 163.04237288135596 -3.8926553672316384Q164.68926553672316 -3.8926553672316384 166.18644067796612 -4.641242937853107Q167.68361581920905 -5.389830508474576 169.77966101694915 -7.036723163841808L171.4265536723164 -4.491525423728814Q168.28248587570624 -2.0960451977401133 165.43785310734467 -0.5240112994350283Q162.59322033898306 1.0480225988700567 157.80225988700568 1.0480225988700567Q153.46045197740114 1.0480225988700567 150.61581920903956 -0.44915254237288127Q147.77118644067798 -1.9463276836158192 146.3488700564972 -4.8658192090395485Q144.9265536723164 -7.785310734463277 144.9265536723164 -12.276836158192092Q140.88418079096047 -5.53954802259887 135.26977401129943 -2.2457627118644066Q129.65536723163842 1.0480225988700567 122.61864406779662 1.0480225988700567ZM128.0084745762712 -4.9406779661016955Q132.9491525423729 -4.9406779661016955 137.21610169491527 -7.785310734463278Q141.48305084745763 -10.62994350282486 144.9265536723164 -16.319209039548024V-45.663841807909606Q143.12994350282486 -43.11864406779661 139.68644067796612 -41.39689265536723Q136.24293785310735 -39.675141242937855 132.20056497175142 -37.95338983050848Q128.1581920903955 -36.2316384180791 124.49011299435028 -33.91101694915255Q120.8220338983051 -31.59039548022599 118.4265536723164 -27.847457627118644Q116.0310734463277 -24.1045197740113 116.0310734463277 -18.11581920903955Q116.0310734463277 -12.127118644067798 119.25000000000001 -8.533898305084747Q122.46892655367233 -4.9406779661016955 128.0084745762712 -4.9406779661016955Z"/><path d="M244.0395480225989 -117.37853107344634V-16.319209039548024Q244.0395480225989 -9.581920903954803 246.50988700564972 -6.362994350282486Q248.98022598870057 -3.1440677966101696 255.41807909604523 -3.1440677966101696V0.0Q250.7768361581921 -0.4491525423728814 246.135593220339 -0.4491525423728814Q241.79378531073448 -0.4491525423728814 237.8262711864407 0.0Q233.8587570621469 0.4491525423728814 230.56497175141246 1.6468926553672318V-99.41242937853107Q230.56497175141246 -106.1497175141243 228.16949152542375 -109.36864406779662Q225.77401129943505 -112.58757062146893 219.18644067796612 -112.58757062146893V-115.7316384180791Q223.97740112994353 -115.28248587570621 228.46892655367233 -115.28248587570621Q232.81073446327684 -115.28248587570621 236.77824858757063 -115.80649717514125Q240.74576271186442 -116.33050847457628 244.0395480225989 -117.37853107344634ZM212.5988700564972 -79.20056497175142Q219.18644067796612 -79.20056497175142 224.95056497175142 -76.05649717514125Q230.71468926553675 -72.91242937853107 232.66101694915255 -65.2768361581921L230.71468926553675 -63.779661016949156Q228.61864406779662 -70.0677966101695 224.20197740112997 -72.91242937853107Q219.78531073446328 -75.75706214689266 213.79661016949154 -75.75706214689266Q204.9632768361582 -75.75706214689266 199.04943502824858 -66.62429378531074Q193.135593220339 -57.49152542372882 193.28531073446328 -38.4774011299435Q193.28531073446328 -26.35028248587571 195.60593220338984 -18.34039548022599Q197.9265536723164 -10.330508474576272 202.49293785310738 -6.362994350282486Q207.05932203389833 -2.3954802259887007 213.64689265536725 -2.3954802259887007Q219.93502824858757 -2.3954802259887007 225.02542372881356 -7.785310734463278Q230.11581920903956 -13.175141242937855 231.16384180790962 -23.65536723163842L232.96045197740114 -21.559322033898304Q231.7627118644068 -10.180790960451978 225.6991525423729 -4.0423728813559325Q219.635593220339 2.0960451977401133 209.3050847457627 2.0960451977401133Q200.02259887005653 2.0960451977401133 193.06073446327684 -2.3954802259887007Q186.0988700564972 -6.887005649717515 182.430790960452 -15.870056497175142Q178.76271186440678 -24.853107344632768 178.76271186440678 -38.4774011299435Q178.76271186440678 -52.10169491525424 183.47881355932205 -61.159604519774014Q188.19491525423732 -70.21751412429379 195.90536723163842 -74.7090395480226Q203.61581920903956 -79.20056497175142 212.5988700564972 -79.20056497175142Z"/><path d="M284.16384180790965 1.0480225988700567Q278.02542372881356 1.0480225988700567 273.5338983050848 -1.2725988700564972Q269.04237288135596 -3.593220338983051 266.7217514124294 -7.785310734463277Q264.40112994350284 -11.977401129943503 264.40112994350284 -17.516949152542374Q264.40112994350284 -24.1045197740113 267.47033898305085 -28.296610169491526Q270.5395480225989 -32.48870056497175 275.3305084745763 -35.03389830508475Q280.1214689265537 -37.579096045197744 285.4364406779661 -39.30084745762712Q290.75141242937855 -41.0225988700565 295.54237288135596 -42.594632768361585Q300.33333333333337 -44.16666666666667 303.4025423728814 -46.26271186440678Q306.4717514124294 -48.35875706214689 306.4717514124294 -51.802259887005654V-61.08474576271187Q306.4717514124294 -67.37288135593221 304.6002824858757 -70.66666666666667Q302.7288135593221 -73.96045197740114 299.5847457627119 -75.08333333333334Q296.4406779661017 -76.20621468926554 292.5480225988701 -76.20621468926554Q288.8050847457627 -76.20621468926554 284.5381355932203 -75.15819209039549Q280.271186440678 -74.11016949152543 277.725988700565 -70.81638418079096Q280.57062146892656 -70.21751412429379 282.6666666666667 -67.82203389830508Q284.7627118644068 -65.42655367231639 284.7627118644068 -61.683615819209045Q284.7627118644068 -57.940677966101696 282.3672316384181 -55.76977401129943Q279.9717514124294 -53.59887005649718 276.2288135593221 -53.59887005649718Q271.88700564971754 -53.59887005649718 269.8658192090396 -56.36864406779661Q267.84463276836163 -59.13841807909605 267.84463276836163 -62.5819209039548Q267.84463276836163 -66.47457627118645 269.7909604519774 -68.87005649717514Q271.73728813559325 -71.26553672316385 274.7316384180791 -73.36158192090396Q278.17514124293785 -75.75706214689266 283.6398305084746 -77.47881355932205Q289.10451977401135 -79.20056497175142 295.99152542372883 -79.20056497175142Q302.12994350282486 -79.20056497175142 306.4717514124294 -77.77824858757063Q310.81355932203394 -76.35593220338984 313.6581920903955 -73.66101694915254Q317.5508474576271 -70.0677966101695 318.74858757062145 -64.90254237288136Q319.94632768361583 -59.737288135593225 319.94632768361583 -52.55084745762712V-10.929378531073446Q319.94632768361583 -7.186440677966102 321.069209039548 -5.53954802259887Q322.19209039548025 -3.8926553672316384 324.58757062146896 -3.8926553672316384Q326.2344632768362 -3.8926553672316384 327.7316384180791 -4.641242937853107Q329.2288135593221 -5.389830508474576 331.3248587570622 -7.036723163841808L332.9717514124294 -4.491525423728814Q329.82768361581924 -2.0960451977401133 326.98305084745766 -0.5240112994350283Q324.1384180790961 1.0480225988700567 319.3474576271187 1.0480225988700567Q315.00564971751413 1.0480225988700567 312.16101694915255 -0.44915254237288127Q309.316384180791 -1.9463276836158192 307.8940677966102 -4.8658192090395485Q306.4717514124294 -7.785310734463277 306.4717514124294 -12.276836158192092Q302.4293785310735 -5.53954802259887 296.8149717514125 -2.2457627118644066Q291.2005649717514 1.0480225988700567 284.16384180790965 1.0480225988700567ZM289.5536723163842 -4.9406779661016955Q294.4943502824859 -4.9406779661016955 298.76129943502826 -7.785310734463278Q303.02824858757066 -10.62994350282486 306.4717514124294 -16.319209039548024V-45.663841807909606Q304.6751412429379 -43.11864406779661 301.2316384180791 -41.39689265536723Q297.7881355932204 -39.675141242937855 293.7457627118645 -37.95338983050848Q289.7033898305085 -36.2316384180791 286.03531073446334 -33.91101694915255Q282.3672316384181 -31.59039548022599 279.9717514124294 -27.847457627118644Q277.5762711864407 -24.1045197740113 277.5762711864407 -18.11581920903955Q277.5762711864407 -12.127118644067798 280.79519774011305 -8.533898305084747Q284.01412429378536 -4.9406779661016955 289.5536723163842 -4.9406779661016955Z"/><path d="M384.02542372881356 -79.20056497175142Q388.0677966101695 -79.20056497175142 391.13700564971754 -77.5536723163842Q394.20621468926555 -75.90677966101696 395.9279661016949 -73.28672316384181Q397.6497175141243 -70.66666666666667 397.6497175141243 -67.37288135593221Q397.6497175141243 -63.629943502824865 395.32909604519773 -60.78531073446328Q393.0084745762712 -57.940677966101696 389.11581920903956 -57.940677966101696Q385.9717514124294 -57.940677966101696 383.5762711864407 -59.96186440677967Q381.180790960452 -61.98305084745763 381.180790960452 -65.72598870056497Q381.180790960452 -68.57062146892656 382.7528248587571 -70.59180790960453Q384.32485875706215 -72.61299435028249 386.271186440678 -73.81073446327684Q385.22316384180795 -75.30790960451978 383.1271186440678 -75.30790960451978Q378.4858757062147 -75.30790960451978 374.5932203389831 -72.53813559322035Q370.7005649717514 -69.76836158192091 368.00564971751413 -65.42655367231639Q365.31073446327684 -61.08474576271187 363.81355932203394 -56.21892655367232Q362.316384180791 -51.35310734463277 362.316384180791 -47.16101694915255V-15.420903954802261Q362.316384180791 -8.084745762711865 366.58333333333337 -5.614406779661017Q370.8502824858757 -3.1440677966101696 378.1864406779661 -3.1440677966101696V0.0Q374.7429378531074 -0.1497175141242938 368.45480225988706 -0.3742937853107345Q362.1666666666667 -0.5988700564971752 355.12994350282486 -0.5988700564971752Q350.03954802259886 -0.5988700564971752 345.0240112994351 -0.3742937853107345Q340.0084745762712 -0.1497175141242938 337.46327683615823 0.0V-3.1440677966101696Q343.60169491525426 -3.1440677966101696 346.2217514124294 -5.389830508474576Q348.84180790960454 -7.635593220338984 348.84180790960454 -13.923728813559324V-60.78531073446328Q348.84180790960454 -67.5225988700565 346.44632768361583 -70.74152542372882Q344.0508474576271 -73.96045197740114 337.46327683615823 -73.96045197740114V-77.10451977401131Q342.2542372881356 -76.65536723163842 346.7457627118644 -76.65536723163842Q351.08757062146896 -76.65536723163842 355.05508474576277 -77.17937853107345Q359.0225988700565 -77.70338983050848 362.316384180791 -78.75141242937853V-60.03672316384181Q363.96327683615823 -64.37853107344633 367.03248587570624 -68.795197740113Q370.10169491525426 -73.21186440677967 374.4435028248588 -76.20621468926555Q378.7853107344633 -79.20056497175142 384.02542372881356 -79.20056497175142Z"/></g>
<g transform="translate(773.7457627118645,214.0)" fill="#B2844A"><path d="M28.385593220338986 -39.71186440677967 29.08474576271187 -42.50847457627119H35.3771186440678Q45.72457627118644 -42.50847457627119 52.855932203389834 -45.375Q59.987288135593225 -48.24152542372882 64.3220338983051 -53.41525423728814Q68.65677966101696 -58.58898305084747 70.61440677966102 -65.37076271186442Q72.5720338983051 -72.15254237288137 72.5720338983051 -79.98305084745763Q72.5720338983051 -88.23305084745763 68.4470338983051 -92.21822033898306Q64.3220338983051 -96.20338983050848 54.8135593220339 -96.20338983050848Q50.75847457627119 -96.20338983050848 48.311440677966104 -95.15466101694916Q45.864406779661024 -94.10593220338984 44.39618644067797 -91.51906779661019Q42.92796610169492 -88.93220338983052 41.66949152542373 -84.17796610169492L23.211864406779664 -14.822033898305087Q22.093220338983052 -10.487288135593221 21.953389830508478 -7.900423728813561Q21.8135593220339 -5.313559322033899 23.841101694915256 -4.125Q25.868644067796613 -2.936440677966102 31.461864406779664 -2.796610169491526L30.90254237288136 0.0Q27.686440677966104 -0.2796610169491526 23.072033898305087 -0.34957627118644075Q18.45762711864407 -0.41949152542372886 13.5635593220339 -0.41949152542372886Q8.110169491525424 -0.41949152542372886 3.2161016949152543 -0.34957627118644075Q-1.6779661016949154 -0.2796610169491526 -4.614406779661017 0.0L-4.055084745762712 -2.796610169491526Q0.6991525423728815 -3.076271186440678 3.355932203389831 -3.915254237288136Q6.01271186440678 -4.754237288135593 7.550847457627119 -7.271186440677967Q9.088983050847459 -9.78813559322034 10.347457627118645 -14.822033898305087L28.805084745762716 -84.17796610169492Q30.063559322033903 -88.65254237288137 29.993644067796616 -91.23940677966104Q29.923728813559325 -93.82627118644069 27.82627118644068 -95.01483050847459Q25.728813559322038 -96.20338983050848 20.555084745762713 -96.20338983050848L21.254237288135595 -99.00000000000001Q24.05084745762712 -98.86016949152544 28.94491525423729 -98.72033898305085Q33.83898305084746 -98.58050847457628 38.45338983050848 -98.58050847457628Q43.487288135593225 -98.58050847457628 48.59110169491526 -98.72033898305085Q53.694915254237294 -98.86016949152544 58.868644067796616 -98.86016949152544Q72.99152542372882 -98.86016949152544 79.84322033898306 -93.05720338983052Q86.6949152542373 -87.2542372881356 86.6949152542373 -77.74576271186442Q86.6949152542373 -66.83898305084746 80.05296610169492 -58.239406779661024Q73.41101694915255 -49.63983050847458 61.525423728813564 -44.67584745762713Q49.63983050847458 -39.71186440677967 33.978813559322035 -39.71186440677967Z"/><path d="M92.70762711864407 -31.741525423728817Q100.53813559322035 -34.398305084745765 106.90042372881356 -36.985169491525426Q113.26271186440678 -39.57203389830509 117.03813559322035 -42.50847457627119Q122.0720338983051 -46.5635593220339 125.0084745762712 -52.29661016949153Q127.9449152542373 -58.029661016949156 127.9449152542373 -64.88135593220339Q127.9449152542373 -68.9364406779661 127.38559322033899 -70.05508474576271Q126.82627118644069 -71.17372881355934 125.70762711864408 -71.17372881355934Q122.21186440677968 -71.17372881355934 118.15677966101697 -68.09745762711866Q114.10169491525426 -65.02118644067798 110.18644067796612 -59.63771186440679Q106.27118644067798 -54.2542372881356 102.98516949152543 -47.402542372881356Q99.69915254237289 -40.55084745762712 97.74152542372883 -32.79025423728814Q95.78389830508476 -25.029661016949156 95.78389830508476 -17.33898305084746Q95.78389830508476 -10.20762711864407 98.4406779661017 -7.061440677966102Q101.09745762711866 -3.915254237288136 105.43220338983052 -3.915254237288136Q110.46610169491527 -3.915254237288136 116.05932203389833 -6.991525423728815Q121.65254237288137 -10.067796610169493 126.96610169491527 -17.898305084745765L129.20338983050848 -16.779661016949156Q126.54661016949154 -12.165254237288137 122.21186440677968 -7.830508474576272Q117.8771186440678 -3.495762711864407 112.49364406779662 -0.7690677966101696Q107.11016949152543 1.957627118644068 101.09745762711866 1.957627118644068Q95.5042372881356 1.957627118644068 91.30932203389831 -0.2796610169491527Q87.11440677966102 -2.5169491525423733 84.8771186440678 -6.921610169491527Q82.63983050847459 -11.32627118644068 82.63983050847459 -17.758474576271187Q82.63983050847459 -23.77118644067797 84.8771186440678 -31.2521186440678Q87.11440677966102 -38.73305084745763 91.23940677966102 -46.21398305084746Q95.36440677966102 -53.694915254237294 101.09745762711864 -59.98728813559323Q106.83050847457628 -66.27966101694916 113.8220338983051 -70.05508474576271Q120.81355932203391 -73.83050847457628 128.78389830508476 -73.83050847457628Q133.11864406779662 -73.83050847457628 136.125 -71.52330508474577Q139.1313559322034 -69.21610169491527 139.1313559322034 -64.60169491525424Q139.1313559322034 -59.00847457627119 135.84533898305085 -54.18432203389831Q132.55932203389833 -49.36016949152543 127.17584745762713 -45.37500000000001Q121.79237288135594 -41.38983050847458 115.5 -38.3135593220339Q109.20762711864407 -35.237288135593225 103.19491525423729 -33.0Q97.18220338983052 -30.762711864406782 92.5677966101695 -29.36440677966102Z"/><path d="M157.86864406779662 0.0H145.70338983050848L162.48305084745766 -59.987288135593225Q163.8813559322034 -64.74152542372882 163.3919491525424 -66.69915254237289Q162.90254237288138 -68.65677966101696 160.5254237288136 -68.65677966101696Q157.4491525423729 -68.65677966101696 154.93220338983053 -65.4406779661017Q152.41525423728817 -62.22457627118645 149.61864406779662 -54.39406779661017L147.80084745762713 -49.22033898305085H145.1440677966102L148.6398305084746 -59.42796610169492Q150.73728813559325 -65.30084745762713 153.60381355932208 -68.3771186440678Q156.47033898305088 -71.45338983050848 159.61652542372883 -72.64194915254238Q162.7627118644068 -73.83050847457628 165.55932203389833 -73.83050847457628Q169.7542372881356 -73.83050847457628 171.50211864406782 -72.01271186440678Q173.25000000000003 -70.1949152542373 173.4597457627119 -67.2584745762712Q173.66949152542375 -64.3220338983051 173.04025423728814 -60.89618644067797Q172.41101694915255 -57.47033898305085 171.5720338983051 -54.2542372881356ZM193.80508474576274 -70.33474576271188Q190.58898305084747 -70.33474576271188 187.16313559322037 -67.32838983050848Q183.73728813559325 -64.3220338983051 180.17161016949154 -58.658898305084755Q176.60593220338984 -52.995762711864415 173.04025423728814 -45.09533898305085Q169.47457627118646 -37.194915254237294 166.04872881355936 -27.54661016949153Q162.62288135593224 -17.898305084745765 159.40677966101697 -6.711864406779662L162.90254237288138 -24.610169491525426Q167.5169491525424 -38.3135593220339 171.50211864406782 -47.68220338983052Q175.48728813559325 -57.05084745762713 179.40254237288138 -62.85381355932204Q183.31779661016952 -68.65677966101696 187.44279661016952 -71.24364406779662Q191.56779661016952 -73.83050847457628 196.18220338983053 -73.83050847457628Q200.09745762711867 -73.83050847457628 202.2648305084746 -71.59322033898306Q204.43220338983053 -69.35593220338984 204.43220338983053 -65.86016949152543Q204.43220338983053 -63.0635593220339 203.0338983050848 -60.75635593220339Q201.63559322033902 -58.449152542372886 199.4682203389831 -57.120762711864415Q197.30084745762713 -55.79237288135594 194.6440677966102 -55.79237288135594Q192.2669491525424 -55.79237288135594 190.65889830508476 -57.120762711864415Q189.05084745762713 -58.449152542372886 189.05084745762713 -60.826271186440685Q189.05084745762713 -63.0635593220339 189.88983050847457 -64.8114406779661Q190.72881355932205 -66.55932203389831 192.12711864406782 -67.8177966101695Q193.5254237288136 -69.07627118644069 195.3432203389831 -69.77542372881356Q195.06355932203394 -70.05508474576271 194.7139830508475 -70.19491525423729Q194.36440677966104 -70.33474576271188 193.80508474576274 -70.33474576271188Z"/><path d="M209.4661016949153 -31.741525423728817Q217.29661016949157 -34.398305084745765 223.6588983050848 -36.985169491525426Q230.021186440678 -39.57203389830509 233.79661016949157 -42.50847457627119Q238.8305084745763 -46.5635593220339 241.7669491525424 -52.29661016949153Q244.7033898305085 -58.029661016949156 244.7033898305085 -64.88135593220339Q244.7033898305085 -68.9364406779661 244.14406779661022 -70.05508474576271Q243.58474576271192 -71.17372881355934 242.4661016949153 -71.17372881355934Q238.97033898305088 -71.17372881355934 234.91525423728817 -68.09745762711866Q230.86016949152545 -65.02118644067798 226.94491525423732 -59.63771186440679Q223.02966101694918 -54.2542372881356 219.74364406779665 -47.402542372881356Q216.4576271186441 -40.55084745762712 214.50000000000003 -32.79025423728814Q212.54237288135596 -25.029661016949156 212.54237288135596 -17.33898305084746Q212.54237288135596 -10.20762711864407 215.19915254237293 -7.061440677966102Q217.85593220338987 -3.915254237288136 222.19067796610173 -3.915254237288136Q227.22457627118646 -3.915254237288136 232.81779661016952 -6.991525423728815Q238.41101694915258 -10.067796610169493 243.7245762711865 -17.898305084745765L245.96186440677968 -16.779661016949156Q243.30508474576274 -12.165254237288137 238.97033898305088 -7.830508474576272Q234.63559322033902 -3.495762711864407 229.25211864406782 -0.7690677966101696Q223.86864406779665 1.957627118644068 217.85593220338987 1.957627118644068Q212.2627118644068 1.957627118644068 208.06779661016952 -0.2796610169491527Q203.87288135593224 -2.5169491525423733 201.63559322033902 -6.921610169491527Q199.3983050847458 -11.32627118644068 199.3983050847458 -17.758474576271187Q199.3983050847458 -23.77118644067797 201.63559322033902 -31.2521186440678Q203.87288135593224 -38.73305084745763 207.99788135593224 -46.21398305084746Q212.12288135593224 -53.694915254237294 217.85593220338987 -59.98728813559323Q223.5889830508475 -66.27966101694916 230.5805084745763 -70.05508474576271Q237.5720338983051 -73.83050847457628 245.54237288135596 -73.83050847457628Q249.87711864406782 -73.83050847457628 252.88347457627123 -71.52330508474577Q255.88983050847463 -69.21610169491527 255.88983050847463 -64.60169491525424Q255.88983050847463 -59.00847457627119 252.60381355932208 -54.18432203389831Q249.31779661016952 -49.36016949152543 243.93432203389835 -45.37500000000001Q238.55084745762716 -41.38983050847458 232.25847457627123 -38.3135593220339Q225.9661016949153 -35.237288135593225 219.9533898305085 -33.0Q213.94067796610173 -30.762711864406782 209.32627118644072 -29.36440677966102Z"/><path d="M274.7669491525424 0.0H262.60169491525426L279.3813559322034 -59.987288135593225Q279.9406779661017 -61.665254237288146 280.2902542372882 -63.692796610169495Q280.63983050847463 -65.72033898305085 280.0805084745763 -67.18855932203391Q279.521186440678 -68.65677966101696 277.2838983050848 -68.65677966101696Q274.2076271186441 -68.65677966101696 271.8305084745763 -65.65042372881356Q269.4533898305085 -62.64406779661017 266.5169491525424 -54.39406779661017L264.69915254237293 -49.22033898305085H262.04237288135596L265.5381355932204 -59.42796610169492Q268.61440677966107 -68.23728813559323 273.1588983050848 -71.03389830508476Q277.7033898305085 -73.83050847457628 282.17796610169495 -73.83050847457628Q286.37288135593224 -73.83050847457628 288.26059322033905 -72.01271186440678Q290.1483050847458 -70.1949152542373 290.35805084745766 -67.32838983050848Q290.5677966101695 -64.46186440677967 289.93855932203394 -61.036016949152554Q289.30932203389835 -57.61016949152543 288.47033898305085 -54.2542372881356ZM281.19915254237293 -29.08474576271187Q286.0932203389831 -41.66949152542373 290.7076271186441 -50.199152542372886Q295.3220338983051 -58.72881355932204 299.79661016949154 -63.97245762711866Q304.271186440678 -69.21610169491527 308.9555084745763 -71.52330508474577Q313.63983050847463 -73.83050847457628 318.67372881355936 -73.83050847457628Q325.2457627118645 -73.83050847457628 327.6927966101696 -70.68432203389831Q330.13983050847463 -67.53813559322035 329.8601694915254 -62.71398305084746Q329.5805084745763 -57.88983050847458 327.9025423728814 -52.71610169491526L314.3389830508475 -11.885593220338984Q313.0805084745763 -8.110169491525424 313.2902542372882 -5.663135593220339Q313.50000000000006 -3.2161016949152548 316.5762711864407 -3.2161016949152548Q319.23305084745766 -3.2161016949152548 321.81991525423734 -6.152542372881356Q324.40677966101697 -9.088983050847459 327.3432203389831 -17.478813559322035L329.16101694915255 -22.65254237288136H331.8177966101695L328.3220338983051 -12.444915254237289Q326.36440677966107 -6.572033898305086 323.49788135593224 -3.4957627118644075Q320.6313559322034 -0.41949152542372886 317.4851694915254 0.7690677966101696Q314.3389830508475 1.957627118644068 311.4025423728814 1.957627118644068Q308.04661016949154 1.957627118644068 305.87923728813564 0.8389830508474576Q303.7118644067797 -0.2796610169491526 302.5932203389831 -2.0974576271186445Q301.05508474576277 -4.614406779661017 301.61440677966107 -8.66949152542373Q302.17372881355936 -12.724576271186443 303.85169491525426 -17.618644067796613L317.13559322033905 -57.61016949152543Q317.8347457627119 -59.567796610169495 318.32415254237293 -62.29449152542374Q318.81355932203394 -65.02118644067798 318.11440677966107 -67.18855932203391Q317.4152542372882 -69.35593220338984 314.05932203389835 -69.35593220338984Q310.7033898305085 -69.35593220338984 306.92796610169495 -66.41949152542374Q303.1525423728814 -63.48305084745763 299.0974576271187 -58.09957627118645Q295.04237288135596 -52.71610169491526 291.1271186440678 -45.235169491525426Q287.2118644067797 -37.7542372881356 283.646186440678 -28.735169491525426Q280.0805084745763 -19.716101694915256 277.1440677966102 -9.508474576271187Z"/><path d="M350.55508474576277 -31.741525423728817Q358.38559322033905 -34.398305084745765 364.74788135593224 -36.985169491525426Q371.1101694915255 -39.57203389830509 374.88559322033905 -42.50847457627119Q379.9194915254238 -46.5635593220339 382.8559322033899 -52.29661016949153Q385.79237288135596 -58.029661016949156 385.79237288135596 -64.88135593220339Q385.79237288135596 -68.9364406779661 385.23305084745766 -70.05508474576271Q384.67372881355936 -71.17372881355934 383.55508474576277 -71.17372881355934Q380.05932203389835 -71.17372881355934 376.00423728813564 -68.09745762711866Q371.94915254237293 -65.02118644067798 368.0338983050848 -59.63771186440679Q364.11864406779665 -54.2542372881356 360.83262711864415 -47.402542372881356Q357.5466101694916 -40.55084745762712 355.58898305084756 -32.79025423728814Q353.63135593220346 -25.029661016949156 353.63135593220346 -17.33898305084746Q353.63135593220346 -10.20762711864407 356.28813559322043 -7.061440677966102Q358.94491525423734 -3.915254237288136 363.2796610169492 -3.915254237288136Q368.31355932203394 -3.915254237288136 373.906779661017 -6.991525423728815Q379.50000000000006 -10.067796610169493 384.81355932203394 -17.898305084745765L387.0508474576272 -16.779661016949156Q384.3940677966102 -12.165254237288137 380.05932203389835 -7.830508474576272Q375.7245762711865 -3.495762711864407 370.3411016949153 -0.7690677966101696Q364.9576271186441 1.957627118644068 358.94491525423734 1.957627118644068Q353.3516949152543 1.957627118644068 349.156779661017 -0.2796610169491527Q344.9618644067797 -2.5169491525423733 342.7245762711865 -6.921610169491527Q340.48728813559325 -11.32627118644068 340.48728813559325 -17.758474576271187Q340.48728813559325 -23.77118644067797 342.7245762711865 -31.2521186440678Q344.9618644067797 -38.73305084745763 349.0868644067797 -46.21398305084746Q353.21186440677974 -53.694915254237294 358.94491525423734 -59.98728813559323Q364.67796610169495 -66.27966101694916 371.6694915254238 -70.05508474576271Q378.6610169491526 -73.83050847457628 386.63135593220346 -73.83050847457628Q390.9661016949153 -73.83050847457628 393.97245762711873 -71.52330508474577Q396.9788135593221 -69.21610169491527 396.9788135593221 -64.60169491525424Q396.9788135593221 -59.00847457627119 393.6927966101696 -54.18432203389831Q390.406779661017 -49.36016949152543 385.02330508474586 -45.37500000000001Q379.63983050847463 -41.38983050847458 373.34745762711873 -38.3135593220339Q367.05508474576277 -35.237288135593225 361.04237288135596 -33.0Q355.0296610169492 -30.762711864406782 350.4152542372882 -29.36440677966102Z"/></g>
</svg>